<svg xmlns="http://www.w3.org/2000/svg" xmlns:xlink="http://www.w3.org/1999/xlink" data-v-0dd9719b="" version="1.0" width="200" height="100" viewBox="0 0 150 100" preserveAspectRatio="xMidYMid meet" color-interpolation-filters="sRGB" style="margin: auto;">   <g data-v-0dd9719b="" class="iconmbgsvg" transform=""><g fill="#000000" hollow-target="textNormalTran"><g opacity="0.55" transform="translate(23.824996948242188,0)"><g><rect fill="#000000" fill-opacity="0" stroke-width="2" x="0" y="0" width="112.5" height="97.64438349506136" class="image-rect"/> <svg x="0" y="0" width="112.5" height="97.64438349506136" filtersec="colorsb70000123" class="image-svg-svg primary" style="overflow: visible;"><svg xmlns="http://www.w3.org/2000/svg" viewBox="0.01035265438258648 -0.006200313568115234 131.36354064941406 114.0174789428711"><path d="M50 81.69c.91 0 1.49-.08 2.07-.08h38.28a2.4 2.4 0 0 0 2.39-1.39q9.36-16.32 18.81-32.61c.4-.68.84-1.34 1.44-2.3 1.64 2.83 3.21 5.36 4.54 8 .24.47-.38 1.48-.76 2.15-6 10.48-12.17 20.91-18.09 31.45-1.28 2.28-2.53 3.3-5.31 3.25-12.1-.2-24.2-.12-36.3-.06a3.14 3.14 0 0 1-3.34-1.88c-1.08-2.14-2.39-4.17-3.73-6.53z" fill="#188bff"/><path d="M57.91 41.32c-.37.74-.61 1.28-.9 1.79C50.67 54.06 44.36 65 38 75.93a2.89 2.89 0 0 0 0 3.32q9.47 16.27 18.84 32.59c.33.57.65 1.14 1.06 1.87a7.82 7.82 0 0 1-1.24.21c-2.33 0-4.66 0-7 .08a2 2 0 0 1-2.05-1.2q-8-14-16.06-27.88c-1.18-2.06-2.34-4.14-3.6-6.16a2 2 0 0 1 0-2.34q9.73-16.74 19.36-33.52a2.85 2.85 0 0 1 3-1.72c2 .12 4 0 5.92 0 .47.03.96.09 1.68.14z" fill="#8fc321"/><path d="M39.05 8.54a28.1 28.1 0 0 0 2.18-4C42.56.77 45.1-.09 49 0c11.84.31 23.69.14 35.54.1a2.07 2.07 0 0 1 2 1.2q9.81 17 19.62 34.07a2.12 2.12 0 0 1 .28 1.66c-1.34 2.54-2.82 5-4.41 7.78-.44-.65-.76-1.06-1-1.5Q91.45 26.67 81.87 10a2.65 2.65 0 0 0-2.65-1.51H41.55z" fill="#fb941c" opacity=".6"/><path d="M88.2 68.82c-1.86-3.18-3.51-6-5.14-8.84Q75.45 46.83 67.9 33.66a2.05 2.05 0 0 0-2.05-1.16h-38.9c-.4 0-.8 0-1.43-.09a8.14 8.14 0 0 1 .48-1.28c1.11-2 2.18-4 3.42-5.91a2.65 2.65 0 0 1 1.86-1.13q19.83-.09 39.65 0a2.41 2.41 0 0 1 1.77 1q10 17.13 19.81 34.32a1.88 1.88 0 0 1 .2 1.51c-1.38 2.55-2.85 5.08-4.51 7.9z" fill="#fb941c"/><path d="M119.8 57.32c1.65 2.84 3.17 5.38 4.6 8 .16.28-.06.87-.27 1.23q-10 17.3-20 34.55a2.41 2.41 0 0 1-1.79 1H63.01a2 2 0 0 1-2.05-1.2c-1.09-2-2.27-4-3.39-5.93a12.76 12.76 0 0 1-.57-1.23c.67 0 1.15-.09 1.63-.09 12.61 0 25.21-.05 37.82 0a3.37 3.37 0 0 0 3.42-2Q109.24 75.31 118.7 59c.3-.46.62-.94 1.1-1.68z" fill="#188bff" opacity=".8"/><path d="M126.77 69.23c1.65 2.86 3.17 5.4 4.55 8 .2.36-.2 1.14-.49 1.64q-8.16 14.22-16.38 28.41c-1.06 1.84-2 3.73-3.21 5.5a2.67 2.67 0 0 1-1.86 1.13q-19.74.1-39.49 0c-.51 0-1.27-.14-1.48-.48-1.54-2.47-3-5-4.61-7.82 1.11-.06 1.89-.13 2.67-.13h37.51a2.65 2.65 0 0 0 2.63-1.53q9.49-16.61 19.1-33.14c.29-.37.57-.81 1.06-1.58z" fill="#188bff" opacity=".6"/><path d="M44.26 41.2C37.42 53 30.84 64.46 24.21 75.85a2.85 2.85 0 0 0 0 3.31c6.42 11 12.77 22.07 19.14 33.11.25.43.46.88.87 1.66a53.72 53.72 0 0 0-6.25 0c-2.59.31-3.9-.71-5.16-3-6-10.72-12.22-21.32-18.41-31.94a2.65 2.65 0 0 1 0-3q9.47-16.29 18.84-32.7c.88-1.54 1.82-2.29 3.67-2.14 2.3.19 4.63.05 7.35.05z" fill="#8fc321" opacity=".8"/><path d="M30.32 41.23c-.42.85-.63 1.35-.9 1.81Q19.91 59.55 10.35 76a2.61 2.61 0 0 0 0 3q9.75 16.8 19.42 33.66c.17.29.29.6.6 1.24-2.5 0-4.76-.13-7 0a3.63 3.63 0 0 1-3.91-2.19C13.16 100.72 6.75 89.7.35 78.67a2 2 0 0 1 0-2.23q9.92-17.07 19.79-34.15c.25-.44.76-1 1.16-1 2.87-.1 5.75-.06 9.02-.06z" fill="#8fc321" opacity=".6"/><path d="M32.21 20.51c1.66-2.91 3-5.43 4.52-7.88a2 2 0 0 1 1.46-.54c13.22 0 26.43-.05 39.65 0a2.45 2.45 0 0 1 1.78 1q10 17.11 19.84 34.29c.23.39.46 1 .29 1.36-1.4 2.61-2.9 5.17-4.52 8-.45-.67-.74-1.06-1-1.47C87.85 44.23 81.42 33.15 75.06 22a2.6 2.6 0 0 0-2.61-1.54h-38z" fill="#fb941c" opacity=".8"/></svg></svg> <!----></g></g> <g transform="translate(0,24.482192993164062)"><g data-gra="path-name" fill-rule="" class="tp-name"><g transform="scale(1)"><g><path d="M13.59-30.75Q15.34-33.34 18.43-34.97 21.52-36.59 25.48-36.59L25.48-36.59Q30.1-36.59 33.83-34.32 37.57-32.05 39.75-27.85 41.93-23.66 41.93-18.14L41.93-18.14Q41.93-12.61 39.75-8.35 37.57-4.09 33.83-1.76 30.1 0.58 25.48 0.58L25.48 0.58Q21.45 0.58 18.43-1.01 15.41-2.6 13.59-5.13L13.59-5.13 13.59 0 4.49 0 4.49-48.1 13.59-48.1 13.59-30.75ZM32.63-18.14Q32.63-21.39 31.3-23.76 29.96-26.13 27.79-27.37 25.61-28.6 23.07-28.6L23.07-28.6Q20.61-28.6 18.43-27.33 16.25-26.07 14.92-23.66 13.59-21.25 13.59-18L13.59-18Q13.59-14.76 14.92-12.35 16.25-9.95 18.43-8.68 20.61-7.41 23.07-7.41L23.07-7.41Q25.61-7.41 27.79-8.71 29.96-10.01 31.3-12.42 32.63-14.82 32.63-18.14L32.63-18.14ZM64.55 0.58Q59.34 0.58 55.19-1.72 51.02-4.03 48.65-8.26 46.28-12.48 46.28-18L46.28-18Q46.28-23.53 48.72-27.76 51.16-31.98 55.38-34.29 59.61-36.59 64.81-36.59L64.81-36.59Q70-36.59 74.23-34.29 78.45-31.98 80.89-27.76 83.33-23.53 83.33-18L83.33-18Q83.33-12.48 80.83-8.26 78.33-4.03 74.07-1.72 69.81 0.58 64.55 0.58L64.55 0.58ZM64.55-7.35Q67.02-7.35 69.19-8.55 71.37-9.75 72.67-12.16 73.97-14.56 73.97-18L73.97-18Q73.97-23.14 71.27-25.9 68.58-28.67 64.67-28.67L64.67-28.67Q60.78-28.67 58.14-25.9 55.51-23.14 55.51-18L55.51-18Q55.51-12.87 58.08-10.11 60.64-7.35 64.55-7.35L64.55-7.35ZM106.01 0.58Q100.81 0.58 96.65-1.72 92.49-4.03 90.12-8.26 87.75-12.48 87.75-18L87.75-18Q87.75-23.53 90.19-27.76 92.62-31.98 96.85-34.29 101.07-36.59 106.27-36.59L106.27-36.59Q111.47-36.59 115.7-34.29 119.92-31.98 122.36-27.76 124.8-23.53 124.8-18L124.8-18Q124.8-12.48 122.3-8.26 119.79-4.03 115.54-1.72 111.28 0.58 106.01 0.58L106.01 0.58ZM106.01-7.35Q108.48-7.35 110.66-8.55 112.84-9.75 114.14-12.16 115.44-14.56 115.44-18L115.44-18Q115.44-23.14 112.74-25.9 110.04-28.67 106.14-28.67L106.14-28.67Q102.24-28.67 99.61-25.9 96.98-23.14 96.98-18L96.98-18Q96.98-12.87 99.55-10.11 102.11-7.35 106.01-7.35L106.01-7.35ZM164.64 0L152.81 0 140.59-15.34 140.59 0 131.5 0 131.5-48.1 140.59-48.1 140.59-20.73 152.69-36.01 164.51-36.01 148.66-17.94 164.64 0Z" transform="translate(-4.489999771118164, 48.099998474121094)" style="&#10;    fill: #606099;&#10;"/></g> <!----> <!----> <!----> <!----> <!----> <!----> <!----></g></g> <!----></g></g></g><defs v-gra="od"/></svg>